<svg width="104" height="27" viewBox="0 0 104 27" fill="none" xmlns="http://www.w3.org/2000/svg">
<mask id="path-1-outside-1_0_252" maskUnits="userSpaceOnUse" x="0" y="0" width="105" height="27" fill="black">
<rect fill="white" width="105" height="27"/>
<path d="M5.98047 0.634766V21.5176H18.8125V26H0.443359V0.634766H5.98047ZM32.9988 0.353516C40.3816 0.353516 46.3757 5.1875 46.3757 13.3086C46.3757 21.4297 40.3816 26.2812 32.9988 26.2812C25.6159 26.2812 19.6218 21.4297 19.6218 13.3086C19.6218 5.1875 25.6159 0.353516 32.9988 0.353516ZM25.1765 13.3086C25.1765 18.7578 28.7624 21.7637 32.9988 21.7637C37.2351 21.7637 40.821 18.7578 40.821 13.3086C40.821 7.85938 37.2351 4.87109 32.9988 4.87109C28.7624 4.87109 25.1765 7.85938 25.1765 13.3086ZM61.7397 15.3125V11.4805H75.1166V13.3086C75.1166 21.2891 69.228 26.2812 61.7397 26.2812C54.3569 26.2812 48.3627 21.2891 48.3627 13.3086C48.3627 5.32812 54.3569 0.353516 61.7397 0.353516C67.769 0.353516 73.183 3.64062 74.5014 8.98438H68.7006C67.8393 6.20703 64.8334 4.87109 61.7397 4.87109C57.5034 4.87109 53.9174 7.87695 53.9174 13.3086C53.9174 18.7402 57.5034 21.7637 61.7397 21.7637C65.4311 21.7637 68.9116 19.4785 69.2631 15.3125H61.7397ZM90.4806 0.353516C97.8634 0.353516 103.858 5.1875 103.858 13.3086C103.858 21.4297 97.8634 26.2812 90.4806 26.2812C83.0978 26.2812 77.1037 21.4297 77.1037 13.3086C77.1037 5.1875 83.0978 0.353516 90.4806 0.353516ZM82.6584 13.3086C82.6584 18.7578 86.2443 21.7637 90.4806 21.7637C94.7169 21.7637 98.3029 18.7578 98.3029 13.3086C98.3029 7.85938 94.7169 4.87109 90.4806 4.87109C86.2443 4.87109 82.6584 7.85938 82.6584 13.3086Z"/>
</mask>
<path d="M5.98047 0.634766V21.5176H18.8125V26H0.443359V0.634766H5.98047ZM32.9988 0.353516C40.3816 0.353516 46.3757 5.1875 46.3757 13.3086C46.3757 21.4297 40.3816 26.2812 32.9988 26.2812C25.6159 26.2812 19.6218 21.4297 19.6218 13.3086C19.6218 5.1875 25.6159 0.353516 32.9988 0.353516ZM25.1765 13.3086C25.1765 18.7578 28.7624 21.7637 32.9988 21.7637C37.2351 21.7637 40.821 18.7578 40.821 13.3086C40.821 7.85938 37.2351 4.87109 32.9988 4.87109C28.7624 4.87109 25.1765 7.85938 25.1765 13.3086ZM61.7397 15.3125V11.4805H75.1166V13.3086C75.1166 21.2891 69.228 26.2812 61.7397 26.2812C54.3569 26.2812 48.3627 21.2891 48.3627 13.3086C48.3627 5.32812 54.3569 0.353516 61.7397 0.353516C67.769 0.353516 73.183 3.64062 74.5014 8.98438H68.7006C67.8393 6.20703 64.8334 4.87109 61.7397 4.87109C57.5034 4.87109 53.9174 7.87695 53.9174 13.3086C53.9174 18.7402 57.5034 21.7637 61.7397 21.7637C65.4311 21.7637 68.9116 19.4785 69.2631 15.3125H61.7397ZM90.4806 0.353516C97.8634 0.353516 103.858 5.1875 103.858 13.3086C103.858 21.4297 97.8634 26.2812 90.4806 26.2812C83.0978 26.2812 77.1037 21.4297 77.1037 13.3086C77.1037 5.1875 83.0978 0.353516 90.4806 0.353516ZM82.6584 13.3086C82.6584 18.7578 86.2443 21.7637 90.4806 21.7637C94.7169 21.7637 98.3029 18.7578 98.3029 13.3086C98.3029 7.85938 94.7169 4.87109 90.4806 4.87109C86.2443 4.87109 82.6584 7.85938 82.6584 13.3086Z" fill="#1D1D1D"/>
<path d="M5.98047 0.634766H6.18047V0.434766H5.98047V0.634766ZM5.98047 21.5176H5.78047V21.7176H5.98047V21.5176ZM18.8125 21.5176H19.0125V21.3176H18.8125V21.5176ZM18.8125 26V26.2H19.0125V26H18.8125ZM0.443359 26H0.243359V26.2H0.443359V26ZM0.443359 0.634766V0.434766H0.243359V0.634766H0.443359ZM5.78047 0.634766V21.5176H6.18047V0.634766H5.78047ZM5.98047 21.7176H18.8125V21.3176H5.98047V21.7176ZM18.6125 21.5176V26H19.0125V21.5176H18.6125ZM18.8125 25.8H0.443359V26.2H18.8125V25.8ZM0.643359 26V0.634766H0.243359V26H0.643359ZM0.443359 0.834765H5.98047V0.434766H0.443359V0.834765ZM32.9987 0.553515C36.647 0.553515 39.9408 1.74765 42.3205 3.93295C44.698 6.11629 46.1757 9.30037 46.1757 13.3086H46.5757C46.5757 9.19573 45.0563 5.90226 42.5911 3.63834C40.1279 1.37638 36.7333 0.153516 32.9987 0.153516V0.553515ZM46.1757 13.3086C46.1757 17.3169 44.698 20.5054 42.3204 22.6932C39.9406 24.8828 36.6468 26.0812 32.9987 26.0812V26.4813C36.7335 26.4813 40.1282 25.2539 42.5912 22.9875C45.0564 20.7192 46.5757 17.4214 46.5757 13.3086H46.1757ZM32.9987 26.0812C29.3507 26.0812 26.0569 24.8828 23.6771 22.6932C21.2995 20.5054 19.8218 17.3169 19.8218 13.3086H19.4218C19.4218 17.4214 20.9411 20.7192 23.4063 22.9875C25.8693 25.2539 29.264 26.4813 32.9987 26.4813V26.0812ZM19.8218 13.3086C19.8218 9.30037 21.2995 6.11629 23.677 3.93295C26.0567 1.74765 29.3505 0.553515 32.9987 0.553515V0.153516C29.2642 0.153516 25.8696 1.37638 23.4064 3.63834C20.9412 5.90226 19.4218 9.19573 19.4218 13.3086H19.8218ZM24.9765 13.3086C24.9765 16.0787 25.889 18.2456 27.3572 19.7207C28.8245 21.1948 30.8329 21.9637 32.9987 21.9637V21.5637C30.9283 21.5637 29.0255 20.8297 27.6407 19.4385C26.257 18.0483 25.3765 15.9877 25.3765 13.3086H24.9765ZM32.9987 21.9637C35.1646 21.9637 37.173 21.1948 38.6403 19.7207C40.1085 18.2456 41.021 16.0787 41.021 13.3086H40.621C40.621 15.9877 39.7405 18.0483 38.3568 19.4385C36.972 20.8297 35.0692 21.5637 32.9987 21.5637V21.9637ZM41.021 13.3086C41.021 10.5385 40.1085 8.37579 38.64 6.90507C37.1726 5.43539 35.1642 4.67109 32.9987 4.67109V5.07109C35.0696 5.07109 36.9724 5.80094 38.357 7.1877C39.7406 8.57343 40.621 10.6295 40.621 13.3086H41.021ZM32.9987 4.67109C30.8333 4.67109 28.8249 5.43539 27.3575 6.90507C25.889 8.37579 24.9765 10.5385 24.9765 13.3086H25.3765C25.3765 10.6295 26.2569 8.57343 27.6405 7.1877C29.0251 5.80094 30.9279 5.07109 32.9987 5.07109V4.67109ZM61.7397 15.3125H61.5397V15.5125H61.7397V15.3125ZM61.7397 11.4805V11.2805H61.5397V11.4805H61.7397ZM75.1166 11.4805H75.3166V11.2805H75.1166V11.4805ZM74.5014 8.98438V9.18438H74.7567L74.6956 8.93647L74.5014 8.98438ZM68.7006 8.98438L68.5096 9.04362L68.5533 9.18438H68.7006V8.98438ZM69.2631 15.3125L69.4624 15.3293L69.4807 15.1125H69.2631V15.3125ZM61.9397 15.3125V11.4805H61.5397V15.3125H61.9397ZM61.7397 11.6805H75.1166V11.2805H61.7397V11.6805ZM74.9166 11.4805V13.3086H75.3166V11.4805H74.9166ZM74.9166 13.3086C74.9166 17.2469 73.465 20.4359 71.0999 22.6413C68.7331 24.8483 65.4395 26.0812 61.7397 26.0812V26.4813C65.5281 26.4813 68.9231 25.2181 71.3727 22.9339C73.8239 20.6481 75.3166 17.3508 75.3166 13.3086H74.9166ZM61.7397 26.0812C54.4529 26.0812 48.5627 21.1647 48.5627 13.3086H48.1627C48.1627 21.4134 54.2609 26.4813 61.7397 26.4813V26.0812ZM48.5627 13.3086C48.5627 9.37144 50.0399 6.18675 52.4185 3.98516C54.7989 1.78187 58.0929 0.553515 61.7397 0.553515V0.153516C58.0037 0.153516 54.6092 1.41247 52.1468 3.6916C49.6826 5.97243 48.1627 9.26528 48.1627 13.3086H48.5627ZM61.7397 0.553515C67.707 0.553515 73.0174 3.80399 74.3072 9.03228L74.6956 8.93647C73.3487 3.47726 67.831 0.153516 61.7397 0.153516V0.553515ZM74.5014 8.78437H68.7006V9.18438H74.5014V8.78437ZM68.8916 8.92513C67.9924 6.02549 64.8725 4.67109 61.7397 4.67109V5.07109C64.7944 5.07109 67.6862 6.38858 68.5096 9.04362L68.8916 8.92513ZM61.7397 4.67109C59.5739 4.67109 57.5656 5.43999 56.0983 6.91177C54.63 8.38456 53.7174 10.5471 53.7174 13.3086H54.1174C54.1174 10.6384 54.9978 8.58224 56.3816 7.19418C57.7664 5.80512 59.6692 5.07109 61.7397 5.07109V4.67109ZM53.7174 13.3086C53.7174 16.07 54.63 18.2369 56.0981 19.714C57.5652 21.1902 59.5735 21.9637 61.7397 21.9637V21.5637C59.6695 21.5637 57.7667 20.8255 56.3818 19.432C54.9978 18.0395 54.1174 15.9788 54.1174 13.3086H53.7174ZM61.7397 21.9637C65.5079 21.9637 69.1 19.6239 69.4624 15.3293L69.0638 15.2957C68.7231 19.3331 65.3543 21.5637 61.7397 21.5637V21.9637ZM69.2631 15.1125H61.7397V15.5125H69.2631V15.1125ZM90.4806 0.553515C94.1289 0.553515 97.4227 1.74765 99.8024 3.93295C102.18 6.11629 103.658 9.30037 103.658 13.3086H104.058C104.058 9.19573 102.538 5.90226 100.073 3.63834C97.6098 1.37638 94.2152 0.153516 90.4806 0.153516V0.553515ZM103.658 13.3086C103.658 17.3169 102.18 20.5054 99.8022 22.6932C97.4225 24.8828 94.1287 26.0812 90.4806 26.0812V26.4813C94.2153 26.4813 97.61 25.2539 100.073 22.9875C102.538 20.7192 104.058 17.4214 104.058 13.3086H103.658ZM90.4806 26.0812C86.8325 26.0812 83.5387 24.8828 81.159 22.6932C78.7814 20.5054 77.3037 17.3169 77.3037 13.3086H76.9037C76.9037 17.4214 78.423 20.7192 80.8882 22.9875C83.3512 25.2539 86.7459 26.4813 90.4806 26.4813V26.0812ZM77.3037 13.3086C77.3037 9.30037 78.7814 6.11629 81.1589 3.93295C83.5385 1.74765 86.8323 0.553515 90.4806 0.553515V0.153516C86.7461 0.153516 83.3514 1.37638 80.8883 3.63834C78.423 5.90226 76.9037 9.19573 76.9037 13.3086H77.3037ZM82.4584 13.3086C82.4584 16.0787 83.3709 18.2456 84.8391 19.7207C86.3064 21.1948 88.3148 21.9637 90.4806 21.9637V21.5637C88.4101 21.5637 86.5074 20.8297 85.1226 19.4385C83.7388 18.0483 82.8584 15.9877 82.8584 13.3086H82.4584ZM90.4806 21.9637C92.6465 21.9637 94.6548 21.1948 96.1221 19.7207C97.5904 18.2456 98.5029 16.0787 98.5029 13.3086H98.1029C98.1029 15.9877 97.2224 18.0483 95.8386 19.4385C94.4539 20.8297 92.5511 21.5637 90.4806 21.5637V21.9637ZM98.5029 13.3086C98.5029 10.5385 97.5904 8.37579 96.1219 6.90507C94.6545 5.43539 92.6461 4.67109 90.4806 4.67109V5.07109C92.5515 5.07109 94.4542 5.80094 95.8388 7.1877C97.2224 8.57343 98.1029 10.6295 98.1029 13.3086H98.5029ZM90.4806 4.67109C88.3151 4.67109 86.3068 5.43539 84.8393 6.90507C83.3709 8.37579 82.4584 10.5385 82.4584 13.3086H82.8584C82.8584 10.6295 83.7388 8.57343 85.1224 7.1877C86.507 5.80094 88.4098 5.07109 90.4806 5.07109V4.67109Z" fill="black" mask="url(#path-1-outside-1_0_252)"/>
</svg>
