<svg width="24" height="24" viewBox="0 0 24 24" fill="none" xmlns="http://www.w3.org/2000/svg">
<path d="M2.79993 10.7026C8.52654 8.0683 12.3452 6.33162 14.2558 5.49255C19.7112 3.09681 20.8447 2.68065 21.5836 2.66676C21.7461 2.66388 22.1094 2.7064 22.3448 2.90804C22.5435 3.0783 22.5982 3.3083 22.6244 3.46972C22.6505 3.63115 22.6831 3.99888 22.6572 4.28621C22.3616 7.56579 21.0824 15.5245 20.4317 19.1976C20.1563 20.7519 19.6141 21.273 19.0892 21.324C17.9484 21.4349 17.0822 20.5281 15.9773 19.7634C14.2484 18.5668 13.2716 17.8219 11.5934 16.6542C9.65394 15.3048 10.9112 14.5631 12.0165 13.351C12.3058 13.0338 17.332 8.20684 17.4293 7.76896C17.4415 7.7142 17.4527 7.51006 17.3379 7.40227C17.223 7.29448 17.0535 7.33134 16.9312 7.36065C16.7578 7.40221 13.9958 9.32969 8.64523 13.1431C7.86125 13.7115 7.15115 13.9884 6.51492 13.9739C5.81353 13.9579 4.46434 13.5552 3.46135 13.211C2.23114 12.7887 1.2534 12.5655 1.33854 11.8485C1.38289 11.475 1.87002 11.093 2.79993 10.7026Z" fill="#101010"/>
</svg>
